<?xml version="1.0" ?><svg xmlns="http://www.w3.org/2000/svg" xmlns:xlink="http://www.w3.org/1999/xlink" version="1.1" viewBox="0 0 512 512" style="enable-background:new 0 0 512 512;" xml:space="preserve"><g id="_x31_4_x2C__bouquet_x2C__flower_x2C__floral_x2C__present_x2C__party_x2C__fun"><g><path d="M466,1c-17.549,0-26.477,9.824-33.649,17.717c-6.672,7.342-10.541,11.173-18.86,11.173c-8.313,0-12.18-3.83-18.849-11.17    C387.468,10.825,378.54,1,360.99,1s-26.478,9.825-33.651,17.72c-6.669,7.34-10.536,11.17-18.849,11.17s-12.18-3.83-18.849-11.17    C282.468,10.825,273.54,1,255.99,1s-26.478,9.825-33.651,17.72c-6.669,7.34-10.536,11.17-18.849,11.17s-12.18-3.83-18.849-11.17    C177.468,10.825,168.54,1,150.99,1c-17.552,0-26.479,9.827-33.652,17.723C110.672,26.061,106.807,29.89,98.5,29.89    c-8.313,0-12.18-3.83-18.849-11.17C72.478,10.825,63.55,1,46,1c-5.522,0-10,4.478-10,10c0,104.789,36.185,219.861,92.183,293.16    c17.092,22.376,37.638,42.856,61.064,57.04c-17.868,29.558-30.102,69.644-28.017,102.045c1.463,22.749,9.953,38.114,23.9,43.264    c12.579,4.651,27.39-0.072,41.799-13.018C235.155,504.876,245.197,511,256,511c10.248,0,19.863-5.555,27.862-15.895    c14.795,13.786,30.044,18.918,43.006,14.135c26.736-9.885,31.995-57.663,12.232-111.134    c-4.809-13.021-10.802-25.329-17.568-36.163c21.975-13.001,42.886-32.386,62.284-57.782C439.815,230.861,476,115.789,476,11    C476,5.478,471.522,1,466,1z M98.5,49.89c17.545,0,26.47-9.824,33.642-17.719C138.81,24.83,142.677,21,150.99,21    c8.313,0,12.18,3.83,18.849,11.17c7.174,7.895,16.102,17.72,33.651,17.72s26.478-9.825,33.651-17.72    C243.811,24.83,247.678,21,255.99,21s12.18,3.83,18.849,11.17c7.174,7.895,16.102,17.72,33.651,17.72s26.478-9.825,33.651-17.72    C348.811,24.83,352.678,21,360.99,21s12.18,3.83,18.849,11.17c7.174,7.895,16.102,17.72,33.651,17.72    c24.513,0,32.001-19.002,42.317-25.95c-2.72,94.39-34.811,195.269-83.666,262.412c-19.61-6.561-37.699-14.138-53.959-22.609    l10.565-23.351c25.601,7.347,50.564-2.588,63.37-30.903c4.917-10.854,8.051-24.902,8.817-35.857    c1.185-17.355-8.969-35.564-26.438-43.463l-7.179-3.243c19.003-19.843,45.564-26.097,45.852-26.162    c4.055-0.901,7.13-4.215,7.727-8.325s-1.409-8.161-5.04-10.178c-0.826-0.459-20.519-11.25-46.208-12.481    c-21.578-1.029-51.044,4.623-75,34.889C286.322,96.074,274.705,91,262.25,91h-12.5c-12.502,0-24.1,5.087-32.401,13.663    c-23.953-30.264-53.406-35.923-74.997-34.885C116.662,71.009,96.97,81.8,96.144,82.259c-3.631,2.017-5.637,6.067-5.04,10.178    s3.672,7.424,7.727,8.325c0.306,0.068,26.802,6.179,45.866,26.155l-7.196,3.251c-17.423,7.879-27.624,26.054-26.436,43.462    c0.763,10.916,3.889,24.98,8.814,35.852c12.6,27.858,37.359,38.394,63.375,30.912l10.564,23.348    c-16.259,8.471-34.349,16.048-53.959,22.61C91.004,219.209,58.913,118.33,56.193,23.94C66.496,30.881,73.991,49.89,98.5,49.89z     M266,227.147v-16.868c8.14-1.193,15.478-3.861,21.752-7.83c3.265,11.951,11.124,22.248,22.772,29.705l-9.82,21.704    C281.247,241.896,270.317,231.623,266,227.147z M211.296,253.857l-9.822-21.709c10.884-6.978,19.273-16.981,22.763-29.698    c6.646,4.192,14.108,6.702,21.763,7.822v16.872C241.663,231.641,230.734,241.907,211.296,253.857z M196.385,162.51    c7.152,10.958,12.368,24.085,8.049,36.383c-8.316-6.105-17.123-11.479-26.275-16.171    C185.076,176.556,191.167,169.808,196.385,162.51z M221.905,144.719c7.767,4.503,16.104,8.146,24.957,10.917    c-6.42,8.065-12.221,16.589-17.268,25.556C221.06,172.221,219.777,158.477,221.905,144.719z M256,191    c-2.968,0-5.832-0.27-8.554-0.768c10.771-18.896,25.29-35.568,41.855-49.764c1.968,9.769,2.72,20.627-0.49,29.967    C282.672,188.328,265.619,191,256,191z M307.56,198.898c-4.099-11.692,0.392-24.722,8.04-36.409    c5.22,7.307,11.318,14.062,18.242,20.233C324.688,187.415,315.878,192.791,307.56,198.898z M327.579,218.708    c-2.703-1.222-5.199-2.647-7.474-4.222c17.536-12.727,37.642-21.971,58.648-28.099c-1.25,5.437-2.887,10.508-4.855,14.852    C360.883,230.019,337.171,223.045,327.579,218.708z M354.217,173.596c-10.322-7.811-18.799-16.903-25.301-27.135    c7.545-6.089,17.68-6.976,25.948-3.218l11.396,5.149c7.073,3.197,12.183,9.532,14.002,16.839    C371.456,167.513,362.742,170.29,354.217,173.596z M261.67,138.926c-12.626-2.866-24.098-7.656-34.24-14.294    c4.206-8.334,12.783-13.632,22.32-13.632h12.5c7.869,0,15.075,3.616,19.721,9.558C274.852,126.295,268.056,132.423,261.67,138.926    z M157.157,143.233c8.145-3.7,18.323-2.905,25.925,3.232c-6.502,10.23-14.978,19.32-25.298,27.131    c-8.526-3.306-17.241-6.083-26.049-8.365c1.815-7.276,6.91-13.631,14.002-16.838L157.157,143.233z M191.895,214.486    c-2.275,1.575-4.771,3-7.474,4.222c-9.591,4.337-33.303,11.31-46.322-17.475c-1.966-4.339-3.602-9.408-4.852-14.846    C154.252,192.515,174.357,201.758,191.895,214.486z M330.812,464.684c-0.884,13.759-5.053,23.644-10.874,25.796    c-6.942,2.559-18.71-4.514-29.975-18.031c-4.597-5.514-13.338-4.523-16.592,1.859C268.043,484.76,261.549,491,256,491    c-5.857,0-12.631-6.807-18.119-18.208c-3.142-6.522-11.953-7.629-16.623-2.146c-10.979,12.888-22.431,19.601-29.195,17.104    c-5.823-2.15-9.99-12.031-10.874-25.787c-1.847-28.713,9.772-65.412,25.852-91.519c32.912,14.349,65.714,13.611,96.561,0.579    C320.507,397.417,332.701,435.312,330.812,464.684z"/></g></g><g id="Layer_1"/></svg>