<svg width="24" height="24" viewBox="0 0 24 24" fill="none" xmlns="http://www.w3.org/2000/svg">
<path d="M0 8.89463C0.0839202 8.84404 0.141615 8.81031 0.19931 8.77659C4.08062 6.85988 7.96193 4.93754 11.8485 3.02645C11.9376 2.98149 12.074 2.99835 12.1684 3.04332C15.478 4.67336 18.7876 6.30341 22.092 7.93908C22.6375 8.20888 23.1829 8.47868 23.7284 8.74848C23.8019 8.78783 23.8753 8.8328 23.9907 8.89463C23.8333 8.97332 23.7127 9.03515 23.5868 9.09698C19.8104 10.9631 16.0392 12.8292 12.2628 14.6953C12.095 14.7797 11.9586 14.8246 11.7646 14.7235C7.91997 12.8124 4.06488 10.9125 0.2098 9.00704C0.14686 8.97894 0.0891652 8.94521 0 8.89463Z" fill="currentColor"/>
<path d="M3.91493 12.4977C6.02867 13.5432 8.10569 14.5718 10.188 15.6004C10.7282 15.8646 11.2684 16.1232 11.8034 16.3986C11.9398 16.466 12.0395 16.466 12.1706 16.3986C14.7406 15.1227 17.3107 13.858 19.886 12.5877C19.9332 12.5652 19.9856 12.5427 20.0853 12.4921C20.2112 12.9474 20.3475 13.3914 20.4472 13.8411C20.6465 14.7123 20.7514 15.6004 20.7671 16.4998C20.7671 16.6572 20.7199 16.7302 20.5888 16.7977C17.7775 18.186 14.9662 19.58 12.1548 20.9683C12.0604 21.0133 11.9083 21.0077 11.8139 20.9683C9.02357 19.5912 6.23323 18.2085 3.44288 16.8314C3.25931 16.7415 3.19636 16.6347 3.20685 16.4211C3.25406 15.1789 3.4219 13.9591 3.81528 12.7788C3.8415 12.6945 3.87822 12.6101 3.91493 12.5033V12.4977Z" fill="currentColor"/>
<path d="M22.5996 18.58V18.3439C22.5996 16.0562 22.5996 13.7742 22.5996 11.4865C22.5996 11.3122 22.6415 11.2167 22.7989 11.1492C23.1975 10.9694 23.5909 10.767 24 10.5647V18.5856H22.6048L22.5996 18.58Z" fill="currentColor"/>
</svg>
