<svg width="24" height="24" viewBox="0 0 24 24" fill="none" xmlns="http://www.w3.org/2000/svg">
<path d="M7.34955 22.9972C5.89161 19.9461 6.66845 18.1985 7.78857 16.5513C9.01538 14.7473 9.33268 12.9625 9.33268 12.9625C9.33268 12.9625 10.2983 14.2234 9.9112 16.1965C11.6153 14.2894 11.9381 11.2493 11.6796 10.0846C15.5323 12.792 17.179 18.6536 14.9607 22.9986C26.7651 16.2845 17.8971 6.23737 16.353 5.10575C16.8672 6.23737 16.9657 8.15275 15.9249 9.08362C14.1647 2.375 9.8141 1 9.8141 1C10.3283 4.4595 7.94859 8.2435 5.65363 11.0705C5.57294 9.69138 5.48678 8.7385 4.76601 7.4185C4.60462 9.92513 2.69945 11.9684 2.18247 14.4791C1.48359 17.8795 2.70629 20.3696 7.34818 23L7.34955 22.9972Z" fill="currentColor"/>
</svg>
