<svg width="24" height="24" viewBox="0 0 24 24" fill="none" xmlns="http://www.w3.org/2000/svg">
<path d="M2 2.92973V22H13.6676V14.7042C13.6676 14.1907 14.0894 13.7745 14.6097 13.7745H17.7255C18.2458 13.7745 18.6676 14.1907 18.6676 14.7042V22H22V2.92973C22 2.41626 21.5782 2 21.0579 2H2.94213C2.42181 2 2 2.41626 2 2.92973ZM9.39028 18.7087H6.27453C5.7542 18.7087 5.3324 18.2924 5.3324 17.779V14.7042C5.3324 14.1907 5.7542 13.7745 6.27453 13.7745H9.39028C9.91061 13.7745 10.3324 14.1907 10.3324 14.7042V17.779C10.3324 18.2924 9.91061 18.7087 9.39028 18.7087ZM9.39028 10.2255H6.27453C5.7542 10.2255 5.3324 9.80926 5.3324 9.29578V6.22105C5.3324 5.70757 5.7542 5.29132 6.27453 5.29132H9.39028C9.91061 5.29132 10.3324 5.70757 10.3324 6.22105V9.29578C10.3324 9.80926 9.91061 10.2255 9.39028 10.2255ZM17.7255 10.2255H14.6097C14.0894 10.2255 13.6676 9.80926 13.6676 9.29578V6.22105C13.6676 5.70757 14.0894 5.29132 14.6097 5.29132H17.7255C18.2458 5.29132 18.6676 5.70757 18.6676 6.22105V9.29578C18.6676 9.80926 18.2458 10.2255 17.7255 10.2255Z" fill="currentColor"/>
</svg>
