<svg width="24" height="24" viewBox="0 0 24 24" fill="none" xmlns="http://www.w3.org/2000/svg">
<path d="M21.4854 19.0049L4.47097 2H3.75451L3.60821 2.37152C3.2221 3.35215 3.05712 4.35511 3.13119 5.27187C3.21561 6.31687 3.61283 7.22159 4.27996 7.88835L11.4367 15.0411L12.3807 14.0976L18.9971 21.4919C19.6553 22.1497 20.7882 22.1888 21.4854 21.4919C22.1715 20.8062 22.1715 19.6906 21.4854 19.0049Z" fill="currentColor"/>
<path d="M8.11966 13.3843L2.51451 18.9862C1.8285 19.6719 1.8285 20.7875 2.51451 21.4732C3.1662 22.1245 4.2936 22.182 5.00282 21.4732L10.608 15.8711L8.11966 13.3843Z" fill="currentColor"/>
<path d="M21.1572 5.32997L17.9777 8.5077L17.1482 7.67872L20.3277 4.50095L19.4983 3.67197L16.3188 6.8497L15.4893 6.02071L18.6689 2.84298L17.8395 2.01404L13.6922 6.15895C13.1849 6.66602 12.8819 7.3393 12.8391 8.05485C12.8282 8.23614 12.7871 8.41446 12.7189 8.58407L15.413 11.2766C15.5827 11.2084 15.7611 11.1673 15.9425 11.1565C16.6585 11.1138 17.3321 10.8109 17.8395 10.3039L21.9867 6.15899L21.1572 5.32997Z" fill="currentColor"/>
</svg>
