<svg width="24" height="24" viewBox="0 0 24 24" fill="none" xmlns="http://www.w3.org/2000/svg">
<path d="M18.374 3C16.0228 3 14.1168 4.88792 14.1168 7.21682V9.43882H2.72237V10.7201H4.61722L3.06948 18.6715C2.5104 18.5232 1.95512 18.3595 1.40437 18.18L1 19.3971C4.26296 20.4607 7.67421 21 11.139 21C14.6038 21 18.015 20.4607 21.278 19.3971L20.8736 18.18C20.3152 18.362 19.7523 18.5277 19.1853 18.6777L17.7327 11.7729V8.24281H18.2608L19.6828 10.8875H21.6329V4.28131H23V3H18.374ZM11.139 19.7187C9.62813 19.7187 8.12799 19.6116 6.64708 19.3994L7.0348 17.6193C7.45189 15.7045 9.16141 14.3375 11.139 14.3375C13.1166 14.3375 14.8262 15.7044 15.2432 17.6193L15.6309 19.3994C14.15 19.6116 12.6499 19.7187 11.139 19.7187Z" fill="currentColor"/>
</svg>
