<svg width="24" height="24" viewBox="0 0 24 24" fill="none" xmlns="http://www.w3.org/2000/svg">
<path d="M5.46369 3.41361C5.36772 3.31358 5.2534 3.23386 5.12725 3.17898C5.00111 3.12411 4.86561 3.09516 4.72851 3.0938C4.59141 3.09244 4.45539 3.11868 4.32823 3.17104C4.20106 3.22339 4.08524 3.30083 3.98738 3.39892C2.88075 4.52332 2.00288 5.8603 1.40436 7.33281C0.805831 8.80532 0.498477 10.3843 0.500006 11.9786C0.498382 13.6342 0.829807 15.2725 1.47372 16.7918C2.11764 18.3112 3.06031 19.6792 4.24325 20.8109C4.44238 20.9989 4.7054 21.1003 4.97648 21.0934C5.24756 21.0866 5.50536 20.9721 5.69513 20.7742C6.14938 20.3102 6.09332 19.5716 5.65632 19.1443C4.70685 18.22 3.95128 17.1082 3.43555 15.8763C2.91981 14.6445 2.65468 13.3184 2.65626 11.9786C2.65626 9.26802 3.72144 6.80996 5.44932 5.02148C5.86619 4.58831 5.90932 3.8688 5.46369 3.41361ZM7.99513 6.00235C7.80581 5.80337 7.54699 5.68916 7.27538 5.68476C7.00377 5.68035 6.74153 5.78611 6.54613 5.97886C5.76817 6.76276 5.1507 7.69694 4.72967 8.727C4.30864 9.75706 4.09247 10.8624 4.09375 11.9786C4.09375 14.4631 5.14313 16.6965 6.81494 18.2413C7.01241 18.4191 7.26932 18.5125 7.5324 18.5022C7.79548 18.4918 8.04456 18.3784 8.228 18.1855C8.6995 17.7038 8.61181 16.9462 8.16906 16.5203C7.56237 15.9374 7.07907 15.2337 6.74901 14.4525C6.41894 13.6714 6.24911 12.8294 6.25 11.9786C6.25 10.29 6.90694 8.75702 7.975 7.63225C8.38613 7.20055 8.45369 6.46929 7.99513 6.00235ZM16.0049 6.00088C16.1942 5.8019 16.453 5.68769 16.7246 5.68329C16.9962 5.67888 17.2585 5.78464 17.4539 5.97739C18.232 6.76146 18.8496 7.69588 19.2706 8.72621C19.6916 9.75654 19.9077 10.8622 19.9062 11.9786C19.9062 14.4631 18.8569 16.6965 17.1851 18.2413C16.9876 18.4191 16.7307 18.5125 16.4676 18.5022C16.2045 18.4918 15.9554 18.3784 15.772 18.1855C15.3005 17.7038 15.3882 16.9462 15.8309 16.5203C16.4376 15.9374 16.9209 15.2337 17.251 14.4525C17.5811 13.6714 17.7509 12.8294 17.75 11.9786C17.75 10.29 17.0931 8.75702 16.025 7.63225C15.6139 7.20055 15.5463 6.46783 16.0049 6.00088ZM18.5363 3.41361C18.6323 3.31358 18.7466 3.23386 18.8727 3.17898C18.9989 3.12411 19.1344 3.09516 19.2715 3.0938C19.4086 3.09244 19.5446 3.11868 19.6718 3.17104C19.7989 3.22339 19.9148 3.30083 20.0126 3.39892C21.1192 4.52332 21.9971 5.8603 22.5956 7.33281C23.1942 8.80532 23.5015 10.3843 23.5 11.9786C23.5016 13.6342 23.1702 15.2725 22.5263 16.7918C21.8824 18.3112 20.9397 19.6792 19.7567 20.8109C19.5576 20.9989 19.2946 21.1003 19.0235 21.0934C18.7524 21.0866 18.4946 20.9721 18.3049 20.7742C17.8506 20.3102 17.9067 19.5716 18.3451 19.1443C19.2943 18.2199 20.0496 17.108 20.5651 15.8762C21.0806 14.6443 21.3455 13.3183 21.3437 11.9786C21.3437 9.26802 20.2786 6.80996 18.5507 5.02148C18.1338 4.58831 18.0907 3.8688 18.5363 3.41361ZM12 9.77608C11.4281 9.77608 10.8797 10.0081 10.4753 10.4212C10.0709 10.8343 9.84375 11.3945 9.84375 11.9786C9.84375 12.5628 10.0709 13.123 10.4753 13.5361C10.8797 13.9491 11.4281 14.1812 12 14.1812C12.5719 14.1812 13.1203 13.9491 13.5247 13.5361C13.9291 13.123 14.1562 12.5628 14.1562 11.9786C14.1562 11.3945 13.9291 10.8343 13.5247 10.4212C13.1203 10.0081 12.5719 9.77608 12 9.77608Z" fill="currentColor"/>
</svg>
