<svg width="24" height="24" viewBox="0 0 24 24" fill="none" xmlns="http://www.w3.org/2000/svg">
<path fill-rule="evenodd" clip-rule="evenodd" d="M6.04488 4.4707C7.64658 2.89245 9.80342 2.00537 12.052 2.00002C14.3007 1.99468 16.4617 2.8715 18.0709 4.44213H18.0728L18.1033 4.4707C21.4795 7.79173 21.4862 13.1261 18.1433 16.4138L12.7422 21.7263C12.564 21.9017 12.3241 22 12.0741 22C11.8241 22 11.5841 21.9017 11.406 21.7263L6.00488 16.4138C5.21193 15.6386 4.58189 14.7127 4.15173 13.6906C3.72158 12.6685 3.5 11.5707 3.5 10.4618C3.5 9.35285 3.72158 8.25509 4.15173 7.23297C4.58189 6.21085 5.21193 5.28499 6.00488 4.50975L6.04488 4.4707ZM12.0717 6.76123C11.6965 6.76123 11.3249 6.83514 10.9783 6.97873C10.6316 7.12231 10.3167 7.33277 10.0513 7.59809C9.78602 7.86341 9.57556 8.17838 9.43197 8.52504C9.28838 8.87169 9.21448 9.24323 9.21448 9.61844C9.21448 9.99366 9.28838 10.3652 9.43197 10.7119C9.57556 11.0585 9.78602 11.3735 10.0513 11.6388C10.3167 11.9041 10.6316 12.1146 10.9783 12.2582C11.3249 12.4017 11.6965 12.4757 12.0717 12.4757C12.8295 12.4757 13.5562 12.1746 14.092 11.6388C14.6279 11.103 14.9289 10.3762 14.9289 9.61844C14.9289 8.86066 14.6279 8.13392 14.092 7.59809C13.5562 7.06226 12.8295 6.76123 12.0717 6.76123Z" fill="currentColor"/>
</svg>
