<svg width="24" height="24" viewBox="0 0 24 24" fill="none" xmlns="http://www.w3.org/2000/svg">
<path d="M14.6761 8.8025C15.4289 8.04966 15.8435 7.0487 15.8435 5.98402C15.8435 4.91935 15.4289 3.91839 14.6761 3.16554C13.8991 2.38851 12.8784 2 11.8578 2C10.8372 2 9.81649 2.38851 9.03948 3.16558L6.51674 5.68849L12.1533 11.3254L14.6761 8.8025Z" fill="currentColor"/>
<path d="M8.80396 14.677L11.3267 12.1542L5.69008 6.5172L3.16738 9.04011C2.41458 9.79291 2 10.7939 2 11.8585C2 12.9232 2.41458 13.9242 3.16738 14.677C4.72141 16.2312 7.25001 16.2311 8.80396 14.677Z" fill="currentColor"/>
<path d="M9.63133 15.5056C8.62587 16.5112 7.30513 17.014 5.98438 17.014C5.93915 17.014 5.89391 17.0133 5.84871 17.012C5.76539 17.3323 5.72082 17.668 5.72082 18.0141C5.72082 20.2119 7.5088 22 9.70645 22H13.2741V14.0282H11.1087L9.63133 15.5056Z" fill="currentColor"/>
<path d="M18.0144 14.0282H14.4467V22H18.0144C20.2121 22 22 20.2119 22 18.0141C22 15.8163 20.212 14.0282 18.0144 14.0282Z" fill="currentColor"/>
</svg>
