<svg width="24" height="24" viewBox="0 0 24 24" fill="none" xmlns="http://www.w3.org/2000/svg">
<path d="M20.8281 18.4844H3.17188V19.6562H2V22H22V19.6562H20.8281V18.4844Z" fill="currentColor"/>
<path d="M2 10.2422H3.17188C3.81789 10.2422 4.34375 10.768 4.34375 11.4141V17.3125H7.89844V11.4141C7.89844 10.768 8.4243 10.2422 9.07031 10.2422C9.71633 10.2422 10.2422 10.768 10.2422 11.4141V17.3125H13.7578V11.4141C13.7578 10.768 14.2837 10.2422 14.9297 10.2422C15.5757 10.2422 16.1016 10.768 16.1016 11.4141V17.3125H19.6562V11.4141C19.6562 10.768 20.1821 10.2422 20.8281 10.2422H22V7.89844H2V10.2422Z" fill="currentColor"/>
<path d="M3.17188 6.72656H20.8281V4.48793L12 2L3.17188 4.48793V6.72656Z" fill="currentColor"/>
</svg>
