<svg width="24" height="24" viewBox="0 0 24 24" fill="none" xmlns="http://www.w3.org/2000/svg">
<path d="M12.6113 22.9942H11.3965V16.9141C11.2984 16.9602 11.2276 16.989 11.1622 17.0237C8.99414 18.0678 6.94044 17.8313 5.07741 16.2737C2.39724 14.0297 2.29919 9.64553 4.84861 7.23423C5.25717 6.84772 5.76379 6.5766 6.21594 6.23625C6.3031 6.16702 6.40114 6.05742 6.42293 5.95358C6.89142 3.60573 8.19336 2.01935 10.3451 1.29249C12.0393 0.721396 13.679 0.992524 15.1661 2.05396C16.4844 2.99425 17.2798 4.31528 17.5794 5.97089C17.5957 6.06895 17.6883 6.1901 17.7755 6.23625C19.5132 7.165 20.5973 8.63601 20.9132 10.6666C21.2401 12.7721 20.6409 14.6008 19.1592 16.0603C17.9008 17.3006 16.3864 17.7909 14.6868 17.6063C14.044 17.5371 13.4338 17.3409 12.8564 17.0352C12.791 17.0006 12.7202 16.966 12.6222 16.9198V23L12.6113 22.9942ZM8.6673 12.7433C8.72722 12.7837 8.7708 12.8125 8.81983 12.8414C9.62061 13.2856 10.4159 13.7355 11.2167 14.1739C11.3529 14.2489 11.3965 14.3355 11.3965 14.497C11.3856 15.2181 11.3965 15.9334 11.3965 16.6545C11.3965 16.7237 11.4074 16.7871 11.4128 16.8852C11.5817 16.7698 11.7179 16.6602 11.8704 16.5852C11.9412 16.5506 12.0556 16.5506 12.1264 16.5852C12.2844 16.6602 12.4206 16.7698 12.5949 16.8852V16.5679C12.5949 14.9239 12.5949 13.2798 12.5949 11.6357C12.5949 11.4742 12.6385 11.3877 12.7747 11.3127C13.5156 10.9089 14.251 10.4935 14.9864 10.0839C15.1008 10.0205 15.2097 9.95127 15.3241 9.88204C15.128 9.49554 14.9428 9.13212 14.7576 8.76292C14.0276 9.16673 13.3249 9.559 12.584 9.96858V7.4419H11.3801V12.8125C10.6447 12.403 9.94201 12.0165 9.22839 11.6184C9.03773 11.9934 8.85796 12.3568 8.6673 12.7375V12.7433Z" fill="currentColor"/>
</svg>
