<svg width="24" height="24" viewBox="0 0 24 24" fill="none" xmlns="http://www.w3.org/2000/svg">
<path d="M20.3333 2H13.4061C12.9478 2 12.3073 2.26548 11.9836 2.58902L2.48636 12.0863C1.83788 12.734 1.83788 13.796 2.48636 14.443L9.5578 21.5143C10.2048 22.162 11.2658 22.162 11.9138 21.5135L21.411 12.0178C21.7345 11.6943 22 11.0528 22 10.5955V3.66675C22 2.75025 21.2497 2 20.3333 2ZM16.9997 8.66677C16.0792 8.66677 15.333 7.91975 15.333 7.00002C15.333 6.07877 16.0792 5.33326 16.9997 5.33326C17.9202 5.33326 18.6667 6.07877 18.6667 7.00002C18.6668 7.91975 17.9202 8.66677 16.9997 8.66677Z" fill="currentColor"/>
</svg>
