<svg width="24" height="24" viewBox="0 0 24 24" fill="none" xmlns="http://www.w3.org/2000/svg">
<path d="M12 7.5C14.4853 7.5 16.5 9.51472 16.5 12C16.5 14.4853 14.4853 16.5 12 16.5C9.51472 16.5 7.5 14.4853 7.5 12C7.5 9.51472 9.51472 7.5 12 7.5Z" fill="currentColor"/>
<path fill-rule="evenodd" clip-rule="evenodd" d="M12 2.5C17.2467 2.5 21.5 6.75329 21.5 12C21.5 17.2467 17.2467 21.5 12 21.5C6.75329 21.5 2.5 17.2467 2.5 12C2.5 6.75329 6.75329 2.5 12 2.5ZM12 4.0498C7.60934 4.0498 4.0498 7.60934 4.0498 12C4.0498 16.3907 7.60934 19.9502 12 19.9502C16.3907 19.9502 19.9502 16.3907 19.9502 12C19.9502 7.60934 16.3907 4.0498 12 4.0498Z" fill="currentColor"/>
</svg>
