<svg width="24" height="24" viewBox="0 0 24 24" fill="none" xmlns="http://www.w3.org/2000/svg">
<path d="M15 6.6875H12.6V5.51562C12.6 3.57711 10.985 2 9 2C7.01496 2 5.4 3.57711 5.4 5.51562V6.6875H3V22H6.6V10.2812H15V6.6875ZM6.6 5.51562C6.6 4.22328 7.67664 3.17188 9 3.17188C10.3234 3.17188 11.4 4.22328 11.4 5.51562V6.6875H6.6V5.51562Z" fill="currentColor"/>
<path d="M7.8 11.4531V22H21V11.4531H7.8ZM17.4 14.3828C17.4 15.998 16.0544 17.3125 14.4 17.3125C12.7456 17.3125 11.4 15.998 11.4 14.3828V13.7969H12.6V14.3828C12.6 15.352 13.4076 16.1406 14.4 16.1406C15.3924 16.1406 16.2 15.352 16.2 14.3828V13.7969H17.4V14.3828Z" fill="currentColor"/>
</svg>
