<svg width="24" height="24" viewBox="0 0 24 24" fill="none" xmlns="http://www.w3.org/2000/svg">
<path d="M15.6006 20.2085C18.7751 18.7976 21 15.7313 21 12.0002C21 8.26901 18.7751 5.20272 15.6006 3.7918V5.61588C17.749 6.87997 19.1999 9.30691 19.1999 12.0002C19.1999 14.6934 17.749 17.1204 15.6006 18.3845V20.2085Z" fill="currentColor"/>
<path d="M15.6006 7.43981V16.5602C16.7032 15.5569 17.4007 13.6152 17.4007 12C17.4007 10.3848 16.7032 8.44306 15.6006 7.43981ZM4.80009 16.5602H7.22751L13.8005 21V3L7.22751 7.43981H4.80009C3.80734 7.43981 3 8.25792 3 9.2639V14.7361C3 15.7421 3.80734 16.5602 4.80009 16.5602Z" fill="currentColor"/>
</svg>
