<svg width="24" height="24" viewBox="0 0 24 24" fill="none" xmlns="http://www.w3.org/2000/svg">
<path d="M8.15454 6.81324L4.53637 3.14684L3.26371 4.43646L19.4645 20.8532L20.7371 19.5635L18.9191 17.7212C20.2683 16.1293 21.007 14.0985 21 12C21 8.26886 18.775 5.20258 15.6006 3.79165V5.61573C17.749 6.87982 19.1999 9.30676 19.1999 12C19.1953 13.6203 18.6669 15.1945 17.6959 16.4817L16.5384 15.3089C17.0803 14.3129 17.4007 13.0853 17.4007 12C17.4007 10.3848 16.7031 8.44306 15.6006 7.43981V14.3585L13.8005 12.5344V3L8.15454 6.81324ZM4.80008 16.5602H7.2275L13.8005 21V17.5826L3.99185 7.6432C3.69473 7.7939 3.44471 8.02519 3.2696 8.31132C3.0945 8.59745 3.00116 8.92721 3 9.2639V14.7361C3 15.7421 3.80734 16.5602 4.80008 16.5602Z" fill="currentColor"/>
</svg>
