<svg width="24" height="24" viewBox="0 0 24 24" fill="none" xmlns="http://www.w3.org/2000/svg">
<path d="M12 13.8057C10.982 13.8057 10.1538 14.6339 10.1538 15.6519C10.1538 16.6699 10.982 17.498 12 17.498C13.018 17.498 13.8462 16.6699 13.8462 15.6519C13.8462 14.6339 13.018 13.8057 12 13.8057Z" fill="currentColor"/>
<path d="M17.6827 10.0215L18.8546 7.8514C19.5817 6.50346 19.5469 4.91388 18.762 3.5984C17.9771 2.28352 16.5938 1.49805 15.0625 1.49805H8.93752C7.40628 1.49805 6.02285 2.28352 5.23799 3.5984C4.45313 4.91388 4.4183 6.50346 5.14663 7.85202L6.31729 10.0215C4.83893 11.5143 4 13.5395 4 15.6519C4 18.3382 5.33653 20.9118 7.57694 22.4004L7.73079 22.5032H16.2693L16.4231 22.4004C18.6635 20.9118 20 18.3382 20 15.6519C20 13.5395 19.1611 11.5143 17.6827 10.0215ZM12 18.7288C10.3029 18.7288 8.92308 17.3484 8.92308 15.6519C8.92308 13.9554 10.3029 12.575 12 12.575C13.6971 12.575 15.0769 13.9554 15.0769 15.6519C15.0769 17.3484 13.6971 18.7288 12 18.7288ZM15.6707 8.56574C13.3982 7.39942 10.5995 7.40229 8.3289 8.565L6.85941 5.84361L8.42909 3.95959H15.5709L17.1406 5.84361L15.6707 8.56574Z" fill="currentColor"/>
</svg>
