<svg width="24" height="24" viewBox="0 0 24 24" fill="none" xmlns="http://www.w3.org/2000/svg">
<path d="M23.0356 18.9989H20.4078C19.414 18.9989 19.1146 18.2085 17.3331 16.4581C15.7762 14.9848 15.1187 14.8016 14.7249 14.8016C14.1802 14.8016 14.0316 14.9486 14.0316 15.6847V18.005C14.0316 18.6325 13.8244 19 12.1546 19C10.5347 18.8931 8.96385 18.4099 7.5714 17.5902C6.17896 16.7704 5.00478 15.6375 4.14558 14.2849C2.1062 11.7912 0.686794 8.86515 0 5.73888C0 5.35217 0.149702 5.00165 0.900512 5.00165H3.52605C4.20085 5.00165 4.44383 5.29677 4.70869 5.97859C5.98345 9.66249 8.15873 12.867 9.04197 12.867C9.38053 12.867 9.52793 12.72 9.52793 11.8911V8.09644C9.41623 6.3653 8.48001 6.21944 8.48001 5.59302C8.49186 5.42775 8.56885 5.27353 8.69463 5.16311C8.82042 5.05269 8.98509 4.99477 9.15367 5.00165H13.2808C13.8451 5.00165 14.0316 5.27755 14.0316 5.94015V11.0623C14.0316 11.6152 14.2735 11.7984 14.4439 11.7984C14.7824 11.7984 15.0427 11.6152 15.6634 11.0069C16.9933 9.41334 18.0802 7.63839 18.89 5.73775C18.9725 5.5093 19.129 5.31372 19.3356 5.18097C19.5421 5.04822 19.7873 4.98563 20.0335 5.00278H22.6602C23.4479 5.00278 23.6148 5.38949 23.4479 5.94128C22.4922 8.0425 21.3101 10.0372 19.9218 11.8911C19.6385 12.3152 19.5257 12.5357 19.9218 13.0332C20.1821 13.4199 21.1033 14.1752 21.7217 14.8932C22.6222 15.7752 23.3696 16.7951 23.935 17.9122C24.1607 18.6314 23.7853 18.9989 23.0356 18.9989Z" fill="currentColor"/>
</svg>
