<svg width="143" height="32" viewBox="0 0 143 32" fill="none" xmlns="http://www.w3.org/2000/svg">
<path fill-rule="evenodd" clip-rule="evenodd" d="M20.3117 24.8606L11.3233 31.9999V14.2741L20.3117 7.13861V24.8606Z" fill="currentColor"/>
<path fill-rule="evenodd" clip-rule="evenodd" d="M8.98844 17.7259L0 24.8613V7.1393L8.98844 0V17.7259Z" fill="currentColor"/>
<path d="M120.472 20.5628V7.44093H127.35L131.371 14.8132L135.463 7.44093H142.059V20.5628H137.103V12.3793L132.5 20.5628H129.943L125.357 12.3793V20.5628H120.472Z" fill="currentColor"/>
<path d="M119.993 7.44093L113.29 17.5822C111.791 19.8397 111.192 20.5628 108.282 20.5628H105.654V17.0531H107.964C108.317 17.0531 108.423 16.9473 108.423 16.7533V16.7356C108.423 16.5769 108.352 16.3829 108.193 16.1889L101.738 7.44093H107.541L111.403 13.1377L114.895 7.44093H119.993Z" fill="currentColor"/>
<path d="M96.2113 20.5628L89.8091 14.6897V20.5628H84.8002V7.44093H89.8091V12.6262L96.2642 7.44093H102.49L94.8532 13.4022L102.737 20.5628H96.2113Z" fill="currentColor"/>
<path d="M78.2039 20.5628V12.3264L69.9675 20.5628H64.9586V7.44093H69.9675V15.695L78.2039 7.44093H83.2128V20.5628H78.2039Z" fill="currentColor"/>
<path d="M45.1687 20.5628V7.44093H50.1776V12.0795H58.3788V7.44093H63.3701V20.5628H58.3788V15.5716H50.1776V20.5628H45.1687Z" fill="currentColor"/>
<path d="M44.7424 7.44098L38.0404 17.5822C36.5412 19.8398 35.9416 20.5629 33.0315 20.5629H30.4036V17.0531H32.714C33.0668 17.0531 33.1726 16.9473 33.1726 16.7533V16.7357C33.1726 16.5769 33.102 16.3829 32.9433 16.1889L26.4882 7.44098H32.2907L36.1532 13.1377L39.6454 7.44098H44.7424Z" fill="currentColor"/>
<path d="M106.776 28.4644L105.809 26.4852L104.866 28.4644H106.776ZM107.928 30.8302L107.479 29.9024H104.193L103.753 30.8302H101.526L104.371 25.0781H107.325L110.332 30.8302H107.928Z" fill="currentColor"/>
<path d="M97.9662 30.9384H97.6647C94.1315 30.9384 93.598 29.137 93.598 28.0469V27.8227C93.598 26.7249 94.0773 24.9699 97.6647 24.9699H97.9662C101.461 24.9699 101.971 26.5548 101.971 27.297V27.3975H99.6903C99.6439 27.2429 99.4661 26.5161 97.7961 26.5161C96.2112 26.5161 95.871 27.2197 95.871 27.8614V27.9541C95.871 28.5726 96.2576 29.3844 97.8038 29.3844C99.497 29.3844 99.6671 28.5726 99.698 28.4412H101.971V28.5649C101.971 29.3148 101.43 30.9384 97.9662 30.9384Z" fill="currentColor"/>
<path d="M87.991 26.7713H90.4109C92.7302 26.7713 93.3178 27.6526 93.3178 28.7273V28.851C93.3178 29.9256 92.738 30.8302 90.4109 30.8302H85.7953V25.0781H87.991V26.7713ZM87.991 29.3999H90.1325C90.8438 29.3999 91.0448 29.1138 91.0448 28.8046V28.7814C91.0448 28.4567 90.8438 28.2015 90.1325 28.2015H87.991V29.3999Z" fill="currentColor"/>
<path d="M82.9049 30.8302V26.5548H80.5237C80.5237 28.8432 80.3691 29.57 80.0598 30.0648C79.7506 30.5828 79.2635 30.8302 78.212 30.8302H77.5007V29.1911H77.6167C77.926 29.1911 78.1038 29.1602 78.2352 28.9824C78.4517 28.7041 78.529 28.0701 78.529 25.0781H85.1006V30.8302H82.9049Z" fill="currentColor"/>
<path d="M70.7032 25.0781H77.066V26.4852H72.868V27.2042H76.981V28.6036H72.868V29.3922H77.1279V30.8302H70.7032V25.0781Z" fill="currentColor"/>
<path d="M64.0811 30.8302V25.0781H70.1579V26.6089H66.2768V30.8302H64.0811Z" fill="currentColor"/>
<path d="M55.4061 30.8302V25.0781H57.6018V27.1114H61.1969V25.0781H63.3848V30.8302H61.1969V28.6422H57.6018V30.8302H55.4061Z" fill="currentColor"/>
<path d="M54.9028 27.8227V28.0469C54.9028 29.137 54.3694 30.9384 50.8362 30.9384H50.5424C47.0633 30.9384 46.5299 29.3767 46.5299 28.65V28.534H48.7951C48.8338 28.7195 49.058 29.4386 50.7202 29.4386C51.8567 29.4386 52.3592 29.0443 52.5603 28.5804H49.5992V27.2274H52.5603C52.3515 26.7944 51.8644 26.462 50.7048 26.462C49.0966 26.462 48.8647 27.0882 48.8029 27.3047H46.5376V27.2197C46.5376 26.5084 47.0401 24.9699 50.5424 24.9699H50.8362C54.4312 24.9699 54.9028 26.7249 54.9028 27.8227Z" fill="currentColor"/>
<path d="M40.6595 28.4644L39.6931 26.4852L38.7498 28.4644H40.6595ZM41.8114 30.8302L41.363 29.9024H38.0772L37.6365 30.8302H35.4099L38.255 25.0781H41.2084L44.2159 30.8302H41.8114Z" fill="currentColor"/>
<path d="M27.2065 30.8304V25.0783H29.4022V27.1116H32.9972V25.0783H35.1852V30.8304H32.9972V28.6424H29.4022V30.8304H27.2065Z" fill="currentColor"/>
</svg>
